# xmcd
#
# Track frame offsets:
#	150
#	10857
#	21917
#	32915
#	43260
#	56997
#	68185
#	76867
#	85575
#	92345
#
# Disc length: 1366 seconds
#
# Revision: 3
# Processed by: cddbd v1.5.1PL2 Copyright (c) Steve Scherf et al.
# Submitted via: audiograbber 1.83.01
#
DISCID=7505540a
DTITLE=Waylon Jennings - White Lightning
DYEAR=1993
DGENRE=Country
TTITLE0=Burning Memories
TTITLE1=Big Mammou
TTITLE2=Mental Revenge
TTITLE3=White Lightnin'
TTITLE4=Love Of The Common People
TTITLE5=Sally Was A Good Ol' Girl
TTITLE6=Love's Gonna Live Here
TTITLE7=Jole Blon
TTITLE8=It's So Easy
TTITLE9=Lorena
EXTD=LaserLight Digital CD
EXTT0=
EXTT1=
EXTT2=
EXTT3=
EXTT4=
EXTT5=
EXTT6=
EXTT7=
EXTT8=
EXTT9=
PLAYORDER=
